<svg xmlns="http://www.w3.org/2000/svg" width="711" height="413"><path d="M 674.825 8.787 L 36.904 8.787 C 36.904 23.771 24.787 35.918 9.842 35.918 L 9.842 377.27 C 24.815 377.27 36.953 389.195 36.953 404.206 L 674.874 404.206 C 674.874 389.222 686.99 377.76 701.936 377.76 L 701.936 264.289 L 701.936 291.42 L 701.936 35.967 C 686.963 35.967 674.825 23.798 674.825 8.787 Z" fill="rgb(200,185,135)" stroke-width="5.554" stroke="rgb(183,139,43)" stroke-miterlimit="10" stroke-dasharray=""></path><path d="M 699.903 405.971 L 684.879 405.971 L 688.808 400.873 L 699.903 400.873 L 699.903 389.75 L 704.989 385.81 L 704.989 405.971 Z M 697.207 397.938 L 689.117 397.938 L 697.207 389.827 Z M 696.976 14.987 L 696.976 23.98 L 688.886 14.987 Z M 699.903 12.284 L 688.809 12.284 L 684.879 7.186 L 704.989 7.186 L 704.989 27.346 L 699.903 23.407 Z M 7.2 405.971 L 7.2 385.81 L 12.87 389.75 L 12.87 400.873 L 23.182 400.873 L 27.112 405.971 Z M 15.15 398.169 L 15.15 390.59 L 23.105 398.169 Z M 14.784 15.219 L 22.874 15.219 L 14.784 23.33 Z M 12.87 12.284 L 12.87 23.407 L 7.2 27.346 L 7.2 7.186 L 27.112 7.186 L 23.182 12.284 Z" fill="rgb(183,139,43)"></path></svg>